<?xml version="1.0" encoding="UTF-8"?>
<svg id="Layer_1" xmlns="http://www.w3.org/2000/svg" version="1.1" viewBox="0 0 300 300">
  <!-- Generator: Adobe Illustrator 29.5.1, SVG Export Plug-In . SVG Version: 2.1.0 Build 141)  -->
  <defs>
    <style>
      .st0 {
        fill: #522e22;
      }
    </style>
  </defs>
  <path class="st0" d="M254.39,14.92H47.73C25.44,14.92,7.36,32.99,7.36,55.28v62.15c0,19.23,13.44,35.32,31.45,39.38,13.04,2.94,25.86,6.77,38.51,11.09h0c22.41,7.65,40.17,25.01,48.35,47.24,10.67,29.01,21.68,58.77,23.72,64.35.26.71.91,1.16,1.68,1.16s1.42-.45,1.68-1.16c2.14-5.83,14.05-38.03,25.14-68.22,6.99-19.02,22.05-33.97,41.13-40.8h0c14.85-5.32,29.9-10.05,45.2-13.88,17.55-4.39,30.55-20.26,30.55-39.17v-62.15c0-22.29-18.07-40.37-40.37-40.37Z"/>
</svg>